<svg width="254" height="216" viewBox="0 0 254 216" fill="none" xmlns="http://www.w3.org/2000/svg">
<path d="M137.5 0.700001C130.3 1.4 126 2.2 126 2.8C126 3.2 128.2 4.3 130.9 5.3C135.7 7 144 14.7 144 17.4C144 20.2 140.7 22.3 128.1 27.5C116.1 32.5 102.4 39.2 84 49.3L77.5 52.9L70.6 48.5C59.2 41.1 54.4 39.7 40.5 39.7C29.1 39.7 16.8 41.6 15 43.7C14.6 44.1 18 46.3 22.6 48.6C30.4 52.5 30.8 52.6 29.9 50.4C28.6 46.8 29.8 45.2 34.4 44.5C43.1 43.2 57.6 47.7 63.4 53.6C64.9 55.2 67.1 58.2 68.1 60.2C69.3 62.6 70.7 64 72 64C73 64 83.7 59.9 95.7 54.9C120.8 44.4 120 44.8 142.9 36.9C175.3 25.7 202.5 20.4 215.2 22.8C226.8 24.9 231.8 30.8 230.7 40.6C230.5 43 230.6 45 231.1 45C231.5 45 234.9 42.2 238.5 38.9C249.7 28.3 256.1 17.6 253 14.6C250.3 12.1 239.6 9.2 229.1 8C216.8 6.7 196 8 183.4 11.1C173.3 13.5 172.7 13.5 170.5 11C164.6 4.5 149.2 -0.300003 137.5 0.700001Z" fill="black"/>
<path d="M24.1 55.2C20 56.3 11.3 61.8 8.3 65.1C7.1 66.4 4.9 70 3.3 73C0.7 78.1 0.5 79.3 0.5 90C0.5 100.5 0.7 101.9 3.2 106.5C8.7 116.9 18.3 123.5 29.7 124.6C36.2 125.3 48.1 123.1 53.8 120.3L57.4 118.5L57.1 110.2C56.8 100.6 58.2 97.3 62.7 96.8C64.4 96.6 65.6 95.8 65.8 94.7C66.1 93.1 64.9 93 51.6 93C43.5 93 36.9 93.4 36.5 93.9C35.8 95.1 39.1 97 41.9 97C46 97 48 100.4 48 107.4C48 110.9 47.7 114.6 47.4 115.5C46.3 118.2 41.4 120 35 120C21 120 12.5 110 11.3 91.9C10.3 78.5 14.9 66 22.5 61.2C25.7 59.1 27.7 58.6 33.1 58.5C38.8 58.5 40.1 58.9 43.3 61.3C47 64.1 51.1 70.9 52.4 76.2C52.8 78.1 53.7 79 55 79C56.9 79 57 78.3 57 67.5C57 57.1 56.8 56 55.2 56C54.2 56 52.9 56.5 52.3 57.1C51.5 57.9 49.6 57.7 45.1 56.1C38.6 53.9 30 53.5 24.1 55.2Z" fill="black"/>
<path d="M127.6 56.7C127 58.1 129 59.4 133.2 60.4C135.7 61 135.9 61.4 136.5 69.4C136.9 74 137.1 86.6 136.9 97.4C136.5 118.4 136.3 118.9 131.4 119C129.1 119 126.6 121.3 127.7 122.3C128 122.7 134.8 123 142.8 123C153.8 123 157.1 122.7 156.8 121.7C156.5 121.1 155 120.1 153.4 119.6C147.4 117.8 147.5 118.2 147.2 105.1L146.9 93H150.4C153.3 93 154.4 93.7 156.7 96.7C158.2 98.8 160.2 101.3 161 102.2C161.8 103.2 165.2 108.2 168.5 113.4L174.5 122.9H183.8C191.1 123 193 122.7 193 121.6C193 120.8 191.7 119.9 190 119.5C188.4 119.2 186 118 184.6 116.9C182.5 115.3 167.6 96 164.7 91.3C164.2 90.5 165.5 89.4 168.2 88.2C176.8 84.3 180.5 78.7 179.8 70.8C179.2 64.6 176.7 61.1 170.5 58.1C165.9 55.8 164.7 55.6 146.9 55.5C132.3 55.4 128 55.7 127.6 56.7ZM165.1 63.8C167.6 66.5 168 67.9 168 72.6C168 82.5 163.2 87.5 153 88.2L147.5 88.5L147.2 75.1C147.1 67.7 147.1 61.1 147.3 60.5C147.6 59.8 150.3 59.7 155 60C161.5 60.5 162.5 60.8 165.1 63.8Z" fill="black"/>
<path d="M69.1 76.9C67.5 77.9 68.5 80 70.6 80C71.4 80 72.9 80.9 74 82C75.8 83.8 76 85.3 76 98.9C76 118.8 77.9 123.3 86.6 124.6C90.2 125.1 92 124.7 96.5 122.5C99.5 121.1 102 119.4 102 118.9C102 118.4 102.7 118 103.5 118C104.4 118 105 118.9 105 120.5C105 123.1 105 123.1 112.7 122.8C119.2 122.5 120.5 122.2 120.8 120.7C121.1 119.5 120.5 119 118.7 119C113.8 119 113.2 116 113.1 91.7L113 75.9L104.8 76.2C98 76.4 96.5 76.8 96.2 78.2C96 79.4 96.7 79.9 99.2 80.2C104.1 80.7 105 83.3 105 98.7C105 111.4 104.9 112 102.4 114.9C99.5 118.4 93.9 120.3 90.5 119C85.5 117.1 85 115 85 94.8V76H77.8C73.8 76 69.9 76.4 69.1 76.9Z" fill="black"/>
<path d="M193.7 76.7C192.2 78.2 193.2 79.8 196 80.4C200.4 81.2 201 83.9 201 101.5V116.9L204.1 120.4C209.4 126.5 218.2 126.2 225.5 119.9L229 116.8V119.9V123.1L237.2 122.8C244.2 122.5 245.5 122.2 245.8 120.7C246.1 119.5 245.5 119 243.6 119C238.6 119 238 116.4 238 95.3V76H230.3C226 76 221.9 76.4 221.1 76.9C219.1 78.2 220.7 80 224 80C225.9 80 227.3 80.7 228 81.9C228.5 83 229 90.4 229 98.8C229 115.5 228.8 115.9 221.4 118.5C216.9 120 212.6 118.9 210.7 115.6C209.9 114.2 209.4 107 209.2 94.7L208.8 76H201.6C197.6 76 194 76.3 193.7 76.7Z" fill="black"/>
<path d="M161.3 140.7C157.8 141.4 158.6 143.7 162.5 144.4C169.3 145.7 169.3 146 168.8 183C168.4 213 168.6 216 170 216C170.9 216 172.2 214.9 173 213.6L174.2 211.2L178.9 213.2C185.8 216.2 195.3 215.4 201 211.5C209.1 205.9 213.3 194 211 183.4C207.8 169 194.9 161.9 183 168C180.5 169.3 178.3 170.2 178 170.1C177.4 169.9 177.3 169.2 177.1 153.2L177 140L170.3 140.1C166.5 140.2 162.5 140.5 161.3 140.7ZM194 172.5C199 175.1 201.4 181.1 201.5 191C201.5 198.3 201.1 200.2 199 204C195.6 210.1 190.8 212.5 185.5 210.8C178.7 208.5 177.7 206 177.3 190.5L176.9 176.9L179.9 174C183.3 170.5 189.1 170 194 172.5Z" fill="black"/>
<path d="M57 148C57 149.5 57.7 150 59.5 150C60.9 150 62.9 150.9 64 152C65.9 153.9 66 155.3 66 180.4C66 206.6 66 206.9 63.8 208.4C62.6 209.3 60.5 210 59.3 210C57.7 210 57 210.6 57 212C57 213.9 57.7 214 83.5 214H110V209.6C110 207.3 110.3 202.6 110.6 199.2C111.2 193.6 111.1 193.2 109.4 193.6C108.3 193.9 106.1 196.6 104.5 199.6C99.5 208.8 98.3 209.5 87.8 209.5C80.1 209.5 78.6 209.2 77.4 207.6C76.3 206 76 200.5 76 179.4C76 153.4 76 153.1 78.2 151.6C79.4 150.7 81.2 150 82.2 150C83.1 150 84.4 149.1 85 148C86 146 85.8 146 71.5 146C57.7 146 57 146.1 57 148Z" fill="black"/>
<path d="M128.4 166C119.8 168 114.3 176.1 118.6 180.4C122.5 184.3 127.5 180.8 126.7 174.8C126.2 171.3 126.5 170.8 128.7 169.9C135.9 167.2 141 170.7 141.8 178.8L142.2 183.7L137.4 185.5C118.1 192.6 115 195.1 115 203.7C115 207.5 115.6 208.8 118.4 211.6C121.3 214.5 122.5 215 126.3 215C132 215 135.7 213.6 139.2 210.3L141.9 207.7L143.1 210.4C144.7 213.7 150.1 215.5 155 214.3C159.2 213.2 159.7 210.6 155.8 210.2C154.4 210 152.7 209.3 152.2 208.7C151.6 208 151 199.8 150.8 190.3L150.5 173.1L147.6 170.1C143.2 165.5 136.3 164.1 128.4 166ZM142 196.5V204.9L138.3 207.5C132.6 211.3 126.9 210.7 125 206C122.4 199.8 126.6 193.5 135.6 190C138.3 189 140.8 188.1 141.3 188C141.7 188 142 191.8 142 196.5Z" fill="black"/>
</svg>
