<svg width="62" height="50" viewBox="0 0 62 50" fill="none" xmlns="http://www.w3.org/2000/svg">
<path d="M57.0769 0H4.00072C1.79112 0 0 1.79112 0 4.00071V37.6067C0 39.8162 1.79125 41.6074 4.00072 41.6074H21.6172L27.4772 48.5744C28.2373 49.4782 29.3579 50 30.5389 50C31.7199 50 32.8404 49.4783 33.6007 48.5744L39.4607 41.6074H57.0769C59.2863 41.6074 61.0776 39.8162 61.0776 37.6067V4.00071C61.0776 1.79112 59.2863 0 57.0769 0ZM43.1965 32.0057H11.0492C9.94444 32.0057 9.04882 31.1101 9.04882 30.0054C9.04882 28.9006 9.94444 28.005 11.0492 28.005H43.1965C44.3012 28.005 45.1969 28.9006 45.1969 30.0054C45.1969 31.1101 44.3012 32.0057 43.1965 32.0057ZM9.04882 20.9665C9.04882 19.8618 9.94444 18.9662 11.0492 18.9662H35.734C36.8387 18.9662 37.7343 19.8618 37.7343 20.9665C37.7343 22.0713 36.8387 22.9669 35.734 22.9669H11.0492C9.94444 22.9669 9.04882 22.0713 9.04882 20.9665ZM50.0284 13.9278H11.0492C9.94444 13.9278 9.04882 13.0322 9.04882 11.9275C9.04882 10.8227 9.94444 9.92711 11.0492 9.92711H50.0283C51.133 9.92711 52.0286 10.8227 52.0286 11.9275C52.0288 13.0322 51.1331 13.9278 50.0284 13.9278Z" fill="black"/>
</svg>
