<svg width="41" height="41" viewBox="0 0 41 41" fill="none" xmlns="http://www.w3.org/2000/svg">
<path d="M32.7568 26.0692L28.4302 25.5738C27.3911 25.4542 26.369 25.8129 25.6366 26.5475L22.5023 29.6909C17.6816 27.2309 13.7297 23.2846 11.2768 18.4329L14.4281 15.2725C15.1606 14.5379 15.5183 13.5129 15.399 12.4708L14.9051 8.16584C14.7006 6.44042 13.2527 5.14209 11.5153 5.14209H8.56836C6.6435 5.14209 5.04229 6.74792 5.16153 8.67834C6.06434 23.2675 17.6987 34.9184 32.2288 35.8238C34.1536 35.9434 35.7548 34.3375 35.7548 32.4071V29.4517C35.7719 27.7263 34.4773 26.2742 32.7568 26.0692V26.0692Z" fill="white"/>
</svg>
