<svg width="16" height="13" viewBox="0 0 16 13" fill="none" xmlns="http://www.w3.org/2000/svg">
<path fill-rule="evenodd" clip-rule="evenodd" d="M1.07686 5.59642C5.28178 3.76182 8.08573 2.55233 9.48868 1.96797C13.4944 0.299503 14.3268 0.00967244 14.8693 0.000102042C14.9886 -0.00200286 15.2554 0.0276103 15.4282 0.168038C15.5742 0.286613 15.6143 0.44679 15.6335 0.559212C15.6527 0.671633 15.6767 0.927733 15.6576 1.12784C15.4406 3.41185 14.5013 8.95454 14.0234 11.5127C13.8213 12.5951 13.4231 12.958 13.0377 12.9936C12.2001 13.0707 11.564 12.4392 10.7527 11.9067C9.48319 11.0733 8.766 10.5545 7.53372 9.74133C6.10961 8.80154 7.0328 8.28502 7.8444 7.44087C8.0568 7.21995 11.7474 3.8583 11.8189 3.55334C11.8278 3.5152 11.8361 3.37304 11.7518 3.29797C11.6674 3.2229 11.5429 3.24857 11.4531 3.26899C11.3258 3.29792 9.29772 4.64029 5.36893 7.29607C4.79328 7.69192 4.27186 7.88479 3.80469 7.87468C3.28968 7.86354 2.299 7.58307 1.56252 7.34334C0.659213 7.04929 -0.0587211 6.89383 0.0037949 6.39445C0.0363571 6.13434 0.394045 5.86833 1.07686 5.59642Z" fill="white"/>
</svg>
